# xmcd CD database file generated by OrangeCD 5.2
#
# Track frame offsets:
#	150
#	46053
#	71269
#	108883
#	170238
#	188357
#
# Disc length: 2811 seconds
#
# Revision: 5
# Processed by: cddbd v1.5.1PL0 Copyright (c) Steve Scherf et al.
# Submitted via: OrangeCD 5.2
#
DISCID=420af906
DTITLE=Monty Alexander - The Monty Alexander Trio - Live At the Montreux Festiv
DTITLE=al
DYEAR=1977
DGENRE=Jazz
TTITLE0=Nite Mist Blues
TTITLE1=Feelings
TTITLE2=Satin Doll
TTITLE3=Work Song
TTITLE4=Drown In My Own Tears
TTITLE5=Battle Hymn Of The Republic
EXTD=YEAR: 1977 ID3G: 8
EXTT0=
EXTT1=
EXTT2=
EXTT3=
EXTT4=
EXTT5=
PLAYORDER=
